<?xml version="1.0" encoding="UTF-8"?>
<svg id="Lager_1_kopia_2" xmlns="http://www.w3.org/2000/svg" version="1.1" viewBox="0 0 667.81 197.08">
  <!-- Generator: Adobe Illustrator 29.8.1, SVG Export Plug-In . SVG Version: 2.1.1 Build 2)  -->
  <defs>
    <style>
      .st0, .st1 {
        fill: #c00d0d;
      }

      .st2, .st3 {
        fill: #fff;
      }

      .st3, .st1 {
        fill-rule: evenodd;
      }
    </style>
  </defs>
  <circle class="st0" cx="168.15" cy="72.88" r="17.49"/>
  <path class="st3" d="M473.31,115.52c-6.83,8.33-15.07,14.66-24.72,19-9.66,4.33-20.41,6.51-32.27,6.54-14.26-.14-26.61-3.2-37.07-9.19-10.46-5.99-18.56-14.11-24.29-24.35-5.73-10.24-8.64-21.8-8.72-34.68.38-19.64,6.45-35.65,18.22-48.05,11.77-12.4,26.95-18.79,45.56-19.19,12.7.11,24.01,3.44,33.91,9.97,9.9,6.54,17.41,15.59,22.53,27.17,5.12,11.58,6.87,25,5.24,40.25h-80.61c.35,6.96,3.69,12.98,10.03,18.07,6.34,5.09,14.3,7.76,23.88,8.01,6.48.03,12.91-1.15,19.3-3.54,6.39-2.39,13.11-6.18,20.17-11.37l8.87,21.35ZM431.75,63.67c-.11-9.7-1.93-17.01-5.47-21.92-3.53-4.92-8.8-7.38-15.81-7.39-6.48-.07-11.75,2.24-15.81,6.92-4.06,4.68-5.88,12.15-5.47,22.39h42.55Z"/>
  <rect class="st0" x="482.37" y="6.15" width="44.44" height="132.93"/>
  <polygon class="st1" points="575.02 39.46 575.02 139.07 619.46 139.07 619.46 39.46 659.09 39.46 659.09 6.15 535.39 6.15 535.39 39.46 575.02 39.46"/>
  <path class="st2" d="M100.26,72.74c0-37.5,30.39-67.89,67.89-67.89s67.89,30.39,67.89,67.89-30.39,67.89-67.89,67.89-67.89-30.4-67.89-67.89ZM168.15,107.79c19.35,0,35.04-15.69,35.04-35.04s-15.69-35.05-35.04-35.05-35.04,15.69-35.04,35.05,15.69,35.04,35.04,35.04Z"/>
  <path class="st3" d="M242.56,7.52v131h48.57v-54.35c1.33-7.77,3.98-14.25,7.94-19.45,3.96-5.2,8.95-7.89,14.95-8.1,3.35-.03,6.7.83,10.05,2.57,3.35,1.74,6.93,4.52,10.75,8.34l21.5-52.09c-5.57-3.46-10.79-6.02-15.66-7.69-4.87-1.66-9.62-2.49-14.25-2.48-8.57.02-16.2,3.15-22.9,9.39-6.7,6.25-12.23,15.52-16.59,27.81h-.47V7.52h-43.9Z"/>
  <path class="st3" d="M89.35,105.54c-11.81.05-21.09-3.09-27.84-8.91-6.75-5.82-10.19-13.76-10.32-23.81.11-10.22,3.49-18.21,10.12-23.95,6.64-5.74,15.9-9.57,27.69-9.23,2.65.08,6.63.28,9.76.84,0,0,2.78-6.8,10.47-16.49,4.17-5.25,12.49-11.8,12.49-11.8-6.35-2.85-12.05-4.33-15.37-5.05-7.68-1.65-16.03-2.43-24.8-2.44-16.27.13-30.12,3.2-41.55,9.2-11.44,6-20.17,14.16-26.2,24.47-6.03,10.31-9.07,21.99-9.12,35.03-.11,10.4,2.23,20.73,7,31.01,4.77,10.28,12.63,18.87,23.56,25.77,10.93,6.9,25.59,10.49,43.97,10.76,9.2,0,18.01-.95,26.4-2.92,6.25-1.46,11.47-3.75,14.77-5.85,0,0-5.89-4.91-12.21-12.25-5.57-6.47-9.38-15.18-9.54-15.54-3.09.68-6.14,1.15-9.3,1.16Z"/>
  <g>
    <path class="st2" d="M291.63,165.53h14.76v2.95h-11.36v6.86h10.02v2.84h-10.02v7.29h11.36v2.95h-14.76v-22.91Z"/>
    <path class="st2" d="M309.04,171.75h3.4v2.43h.1c.48-.88,1.15-1.57,2.03-2.07.87-.5,1.91-.75,3.1-.75s2.29.25,3.18.76c.89.51,1.58,1.26,2.06,2.26.48,1,.72,2.21.72,3.65v10.39h-3.4v-9.96c0-1.31-.31-2.32-.95-3.03-.63-.71-1.52-1.06-2.66-1.06-.86,0-1.6.19-2.23.58-.63.39-1.11.92-1.45,1.59-.33.67-.5,1.43-.5,2.26v9.63h-3.4v-16.68Z"/>
    <path class="st2" d="M336.95,187.78c-1.03-.68-1.84-1.67-2.43-2.98-.59-1.31-.88-2.87-.88-4.68s.28-3.31.85-4.62c.57-1.31,1.37-2.33,2.4-3.04,1.03-.71,2.23-1.07,3.6-1.07.78,0,1.51.12,2.18.35.67.23,1.27.56,1.8.99.53.43.96.94,1.3,1.53h.06v-8.69h3.42v22.86h-3.42v-2.49h-.06c-.37.62-.83,1.15-1.38,1.57-.55.42-1.16.74-1.83.96-.67.22-1.37.33-2.1.33-1.3,0-2.47-.34-3.5-1.02ZM343.84,185.12c.66-.46,1.16-1.12,1.52-1.99.36-.86.54-1.87.54-3.03s-.18-2.12-.53-2.98-.86-1.54-1.52-2.02c-.66-.48-1.44-.72-2.33-.72s-1.65.23-2.32.69c-.67.46-1.18,1.12-1.55,1.98-.37.86-.55,1.87-.55,3.03s.19,2.21.56,3.07c.37.86.89,1.52,1.56,1.97.67.45,1.44.67,2.31.67s1.65-.23,2.3-.69Z"/>
    <path class="st2" d="M355.4,187.7c-1.17-.73-2.05-1.75-2.65-3.07-.59-1.31-.89-2.83-.89-4.54s.31-3.31.92-4.62c.61-1.31,1.5-2.32,2.67-3.03,1.17-.71,2.55-1.06,4.16-1.06s2.86.35,3.96,1.06,1.91,1.68,2.47,2.91c.56,1.24.83,2.64.83,4.19,0,.22,0,.48,0,.76,0,.29-.02.56-.06.81h-11.67c.08,1.04.31,1.91.67,2.61.36.71.87,1.23,1.52,1.58s1.45.52,2.41.52c.68,0,1.26-.1,1.75-.29.49-.2.9-.48,1.22-.87.32-.38.57-.85.74-1.41h3.29c-.2,1.15-.62,2.14-1.25,2.97-.64.83-1.45,1.46-2.45,1.9s-2.12.66-3.37.66c-1.67,0-3.09-.37-4.26-1.1ZM363.02,176.1c-.31-.66-.75-1.17-1.34-1.53-.59-.36-1.29-.54-2.1-.54s-1.54.15-2.15.46c-.61.31-1.11.79-1.49,1.45s-.64,1.5-.75,2.54h8.39c-.05-.92-.23-1.71-.54-2.37Z"/>
    <path class="st2" d="M369.52,188.43v-22.91h3.4v22.91h-3.4Z"/>
    <path class="st2" d="M385.63,188.16c-.8-.38-1.43-.94-1.87-1.69-.44-.75-.67-1.64-.67-2.69s.25-1.98.75-2.71c.5-.73,1.24-1.29,2.23-1.69s2.25-.68,3.77-.83l4-.37v-1.13c0-.56-.14-1.06-.42-1.49-.28-.43-.69-.76-1.22-.98-.53-.23-1.16-.34-1.89-.34-.69,0-1.29.12-1.8.35-.51.23-.92.56-1.22.98s-.48.92-.53,1.49h-3.29c.1-1.17.43-2.18,1.01-3.03.58-.86,1.37-1.51,2.37-1.97,1-.46,2.16-.68,3.49-.68,1.42,0,2.64.23,3.66.69,1.02.46,1.8,1.12,2.34,1.98.54.86.81,1.86.81,3v11.37h-3.3v-2.59h-.08c-.41.85-1.08,1.54-1.99,2.08-.92.54-2.03.81-3.33.81-1.07,0-2.01-.19-2.81-.57ZM391.77,185.41c.68-.42,1.2-.98,1.55-1.7s.52-1.51.52-2.39v-.7l-3.86.37c-1.21.12-2.12.39-2.73.82-.61.43-.92,1.03-.92,1.8,0,.5.12.93.37,1.29.25.37.6.65,1.06.84s1,.29,1.63.29c.9,0,1.69-.21,2.38-.63Z"/>
    <path class="st2" d="M398.44,171.75h3.5l3.4,9.96c.2.58.39,1.16.56,1.73.17.57.33,1.08.45,1.54h.05c.13-.46.27-.97.44-1.54.17-.57.35-1.15.54-1.73l3.34-9.96h3.49l-6.18,16.68h-3.3l-6.29-16.68Z"/>
  </g>
  <g>
    <path class="st2" d="M530.02,164.77h-3.72v3.71h3.72v-3.71Z"/>
    <g>
      <path class="st3" d="M441.17,180.53v9.91h-7.07v-9.91h-9.91v-7.08h9.91l7.07,7.08Z"/>
      <path class="st3" d="M451.08,170.62v9.91h-7.08v-9.91h-9.9v-7.08h9.9l7.08,7.08Z"/>
      <g>
        <path class="st2" d="M466.49,165.14h4.47l8.33,23.3h-3.88l-1.97-5.83h-9.42l-1.97,5.83h-3.86l8.31-23.3h0ZM472.47,179.76l-2.9-8.6c-.29-.85-.55-1.75-.8-2.7h-.11c-.25.95-.52,1.85-.81,2.7l-2.9,8.6h7.51Z"/>
        <path class="st2" d="M483.1,187.77c-1.05-.69-1.87-1.7-2.48-3.03-.6-1.33-.9-2.91-.9-4.76s.29-3.37.86-4.7c.58-1.34,1.39-2.37,2.44-3.09,1.05-.73,2.27-1.09,3.67-1.09.8,0,1.54.12,2.22.36.68.23,1.29.57,1.84,1.01.54.44.98.96,1.33,1.56h.07v-8.84h3.48v23.25h-3.48v-2.54h-.07c-.38.63-.84,1.17-1.41,1.6-.56.43-1.18.76-1.87.98s-1.4.33-2.14.33c-1.32,0-2.51-.35-3.57-1.04h0ZM490.12,185.07c.67-.47,1.19-1.14,1.55-2.02.37-.88.55-1.9.55-3.08s-.18-2.15-.54-3.03c-.36-.88-.88-1.56-1.55-2.05-.67-.49-1.47-.73-2.37-.73s-1.68.23-2.36.7c-.68.47-1.21,1.14-1.58,2.01-.37.88-.56,1.9-.56,3.09s.19,2.25.57,3.12c.38.88.91,1.55,1.6,2,.68.46,1.47.68,2.35.68s1.68-.23,2.35-.7h0Z"/>
        <path class="st2" d="M501.54,187.69c-1.19-.75-2.09-1.78-2.69-3.12-.6-1.34-.91-2.88-.91-4.62s.31-3.37.94-4.7c.63-1.33,1.53-2.35,2.72-3.08,1.18-.72,2.6-1.08,4.24-1.08s2.92.36,4.03,1.07c1.12.71,1.95,1.71,2.51,2.96.57,1.26.85,2.68.85,4.26,0,.23,0,.49,0,.78,0,.29-.02.57-.06.83h-11.89c.09,1.05.31,1.94.68,2.66.36.71.88,1.25,1.55,1.61.67.36,1.48.54,2.45.54.69,0,1.29-.1,1.79-.3.5-.2.92-.49,1.24-.88.33-.39.58-.87.75-1.44h3.35c-.2,1.18-.63,2.18-1.28,3.02-.65.84-1.48,1.49-2.49,1.93-1.01.45-2.16.67-3.43.67-1.7,0-3.15-.37-4.34-1.12h0ZM509.3,175.88c-.31-.67-.77-1.2-1.37-1.56-.6-.36-1.31-.55-2.14-.55s-1.57.15-2.19.47-1.13.8-1.52,1.47c-.39.67-.65,1.53-.77,2.58h8.54c-.06-.94-.24-1.74-.55-2.42h0Z"/>
        <path class="st2" d="M515.69,171.46h3.46v3.18h.08c.44-1.09,1.07-1.9,1.87-2.46.81-.55,1.79-.83,2.95-.83.43,0,.73.02.89.05v3.3c-.13-.02-.27-.04-.42-.06-.15-.01-.31-.02-.47-.02-.98,0-1.84.21-2.58.62-.74.41-1.31,1-1.71,1.77-.41.76-.6,1.66-.6,2.68v8.73h-3.46v-16.97h0Z"/>
        <path class="st2" d="M526.43,171.46h3.46v16.97h-3.46v-16.97Z"/>
        <path class="st2" d="M534.65,188.15c-.82-.39-1.45-.96-1.91-1.72-.45-.76-.68-1.67-.68-2.74s.25-2.02.76-2.76c.51-.74,1.26-1.31,2.27-1.72,1.01-.41,2.29-.69,3.84-.84l4.08-.37v-1.15c0-.57-.14-1.07-.43-1.51-.28-.44-.7-.77-1.24-1-.54-.23-1.18-.35-1.92-.35s-1.31.12-1.84.36c-.52.23-.94.57-1.24,1-.31.43-.49.94-.54,1.52h-3.35c.1-1.18.44-2.21,1.03-3.09.59-.88,1.39-1.54,2.41-2,1.02-.46,2.2-.7,3.55-.7,1.45,0,2.69.23,3.73.7,1.04.47,1.84,1.14,2.39,2.01.55.88.83,1.89.83,3.05v11.57h-3.37v-2.63h-.08c-.42.86-1.1,1.57-2.03,2.11-.93.55-2.06.83-3.39.83-1.09,0-2.05-.19-2.87-.58h0ZM540.9,185.35c.7-.43,1.22-1,1.58-1.73.36-.73.54-1.54.54-2.43v-.71l-3.93.37c-1.23.12-2.16.39-2.79.83-.62.44-.94,1.05-.94,1.84,0,.51.13.94.38,1.32.25.38.62.66,1.08.86.47.2,1.02.3,1.66.3.92,0,1.73-.22,2.42-.64h0Z"/>
        <path class="st2" d="M549.35,171.46h3.46v2.47h.1c.49-.89,1.17-1.6,2.06-2.1.89-.51,1.94-.76,3.16-.76s2.33.26,3.24.78c.91.52,1.6,1.28,2.1,2.29.49,1.01.73,2.25.73,3.72v10.57h-3.46v-10.13c0-1.34-.32-2.37-.96-3.09-.64-.72-1.55-1.08-2.71-1.08-.88,0-1.63.2-2.27.59s-1.13.93-1.47,1.61c-.34.68-.51,1.45-.51,2.3v9.79h-3.46v-16.97h0Z"/>
        <path class="st2" d="M579.5,187.29c-1.61-1-2.85-2.42-3.71-4.23-.86-1.81-1.29-3.91-1.29-6.27s.43-4.4,1.28-6.22c.85-1.82,2.08-3.24,3.7-4.26,1.61-1.02,3.51-1.53,5.7-1.53,1.73,0,3.25.32,4.58.96,1.33.63,2.42,1.55,3.26,2.75.84,1.2,1.42,2.63,1.74,4.28h-3.54c-.24-1.02-.62-1.9-1.15-2.63-.53-.73-1.2-1.28-2.01-1.67-.81-.39-1.74-.58-2.82-.58-1.49,0-2.76.39-3.83,1.16-1.07.78-1.86,1.84-2.4,3.2-.54,1.36-.8,2.9-.8,4.63s.27,3.27.82,4.6c.55,1.34,1.34,2.37,2.39,3.12,1.05.75,2.31,1.12,3.78,1.12,1.28,0,2.36-.25,3.26-.73.9-.49,1.61-1.22,2.12-2.19.51-.97.83-2.17.95-3.61h-6.26v-2.76h9.68v1.45c0,2.27-.38,4.23-1.13,5.85-.76,1.63-1.86,2.88-3.32,3.77-1.46.88-3.24,1.32-5.33,1.32s-4.04-.51-5.65-1.51v-.02Z"/>
        <path class="st2" d="M597.54,171.46h3.46v3.18h.08c.44-1.09,1.07-1.9,1.87-2.46.81-.55,1.79-.83,2.95-.83.43,0,.73.02.89.05v3.3c-.13-.02-.27-.04-.42-.06-.15-.01-.31-.02-.47-.02-.98,0-1.84.21-2.58.62-.74.41-1.31,1-1.71,1.77-.41.76-.6,1.66-.6,2.68v8.73h-3.46v-16.97h0Z"/>
        <path class="st2" d="M611.17,187.73c-1.21-.71-2.16-1.74-2.82-3.08-.67-1.34-1-2.9-1-4.68s.33-3.37.99-4.7c.66-1.34,1.6-2.37,2.82-3.09s2.64-1.09,4.25-1.09,3.01.36,4.22,1.08c1.21.72,2.14,1.75,2.79,3.09.65,1.34.98,2.91.98,4.71s-.33,3.37-1,4.7c-.67,1.33-1.61,2.35-2.82,3.07-1.21.71-2.61,1.07-4.18,1.07s-3-.36-4.22-1.07h0ZM617.78,185.23c.68-.45,1.2-1.12,1.57-2.01.37-.89.55-1.97.55-3.25s-.18-2.37-.54-3.27c-.36-.89-.88-1.57-1.56-2.03-.68-.46-1.49-.68-2.41-.68s-1.74.23-2.43.68c-.68.46-1.2,1.13-1.56,2.03-.36.89-.54,1.98-.54,3.27s.18,2.35.55,3.24c.36.89.89,1.56,1.57,2.02s1.49.68,2.41.68,1.71-.23,2.4-.68h0Z"/>
        <path class="st2" d="M640.23,188.43h-3.46v-2.47h-.1c-.49.89-1.17,1.6-2.06,2.1-.89.51-1.94.76-3.16.76s-2.33-.26-3.24-.78c-.91-.52-1.6-1.28-2.1-2.29-.49-1.01-.73-2.25-.73-3.72v-10.57h3.46v10.13c0,1.34.32,2.37.96,3.09.64.72,1.55,1.08,2.71,1.08.88,0,1.63-.2,2.27-.59.64-.39,1.13-.93,1.47-1.61.34-.68.51-1.45.51-2.3v-9.79h3.46v16.97h0Z"/>
        <path class="st2" d="M650.02,188.47c-.68-.22-1.3-.55-1.86-.99-.56-.44-1.03-.98-1.41-1.62h-.08v8.86h-3.46v-23.26h3.46v2.58h.08c.34-.62.78-1.14,1.32-1.58.54-.44,1.14-.78,1.82-1.02s1.42-.36,2.23-.36c1.39,0,2.61.36,3.67,1.09,1.05.73,1.87,1.76,2.44,3.09.58,1.34.86,2.9.86,4.7s-.3,3.43-.89,4.76c-.59,1.33-1.42,2.34-2.48,3.03-1.06.69-2.25,1.04-3.57,1.04-.75,0-1.45-.11-2.14-.33h0ZM653.42,185.08c.68-.46,1.21-1.13,1.6-2,.38-.88.57-1.92.57-3.12s-.19-2.22-.57-3.09c-.38-.88-.91-1.55-1.58-2.01-.67-.46-1.46-.7-2.35-.7s-1.71.25-2.39.73c-.67.49-1.19,1.18-1.55,2.05-.36.88-.54,1.89-.54,3.03s.18,2.2.54,3.08c.36.88.88,1.55,1.55,2.02.67.47,1.46.7,2.35.7s1.66-.23,2.35-.68h0Z"/>
      </g>
    </g>
  </g>
</svg>