<?xml version="1.0" encoding="UTF-8"?>
<svg id="Lager_1" xmlns="http://www.w3.org/2000/svg" version="1.1" viewBox="0 0 666.42 200.73">
  <!-- Generator: Adobe Illustrator 29.8.1, SVG Export Plug-In . SVG Version: 2.1.1 Build 2)  -->
  <defs>
    <style>
      .st0, .st1 {
        fill: #c00d0d;
      }

      .st2, .st3 {
        fill: #1d1d1b;
      }

      .st1, .st3 {
        fill-rule: evenodd;
      }
    </style>
  </defs>
  <path class="st3" d="M474.4,116.76c-6.83,8.33-15.07,14.66-24.72,19-9.66,4.33-20.41,6.51-32.27,6.54-14.26-.14-26.61-3.2-37.07-9.19-10.46-5.99-18.56-14.11-24.29-24.35-5.73-10.24-8.64-21.8-8.72-34.68.38-19.64,6.45-35.65,18.22-48.05,11.77-12.4,26.95-18.79,45.56-19.19,12.7.11,24.01,3.44,33.91,9.97,9.9,6.54,17.41,15.59,22.53,27.17,5.12,11.58,6.87,25,5.24,40.25h-80.61c.35,6.96,3.69,12.98,10.03,18.07,6.34,5.09,14.3,7.76,23.88,8.01,6.48.03,12.91-1.15,19.3-3.54,6.39-2.39,13.11-6.18,20.17-11.37l8.87,21.35ZM432.84,64.9c-.11-9.7-1.93-17.01-5.47-21.92-3.53-4.92-8.8-7.38-15.81-7.39-6.48-.07-11.75,2.24-15.81,6.92-4.06,4.68-5.88,12.15-5.47,22.39h42.55Z"/>
  <rect class="st0" x="483.46" y="7.38" width="44.44" height="132.93"/>
  <polygon class="st1" points="576.12 40.69 576.12 140.31 620.56 140.31 620.56 40.69 660.19 40.69 660.19 7.38 536.49 7.38 536.49 40.69 576.12 40.69"/>
  <path class="st2" d="M101.35,73.98c0-37.5,30.39-67.89,67.89-67.89s67.89,30.39,67.89,67.89-30.39,67.89-67.89,67.89-67.89-30.4-67.89-67.89ZM169.24,109.02c19.35,0,35.04-15.69,35.04-35.04s-15.69-35.05-35.04-35.05-35.04,15.69-35.04,35.05,15.69,35.04,35.04,35.04Z"/>
  <circle class="st0" cx="169.24" cy="73.98" r="17.49"/>
  <path class="st3" d="M243.66,8.76v131h48.57v-54.35c1.33-7.77,3.98-14.25,7.94-19.45,3.96-5.2,8.95-7.89,14.95-8.1,3.35-.03,6.7.83,10.05,2.57,3.35,1.74,6.93,4.52,10.75,8.34l21.5-52.09c-5.57-3.46-10.79-6.02-15.66-7.69-4.87-1.66-9.62-2.49-14.25-2.48-8.57.02-16.2,3.15-22.9,9.39-6.7,6.25-12.23,15.52-16.59,27.81h-.47V8.76h-43.9Z"/>
  <path class="st3" d="M90.44,106.77c-11.81.05-21.09-3.09-27.84-8.91-6.75-5.82-10.19-13.76-10.32-23.81.11-10.22,3.49-18.21,10.12-23.95,6.64-5.74,15.9-9.57,27.69-9.23,2.65.08,6.63.28,9.76.84,0,0,2.78-6.8,10.47-16.49,4.17-5.25,12.49-11.8,12.49-11.8-6.35-2.85-12.05-4.33-15.37-5.05-7.68-1.65-16.03-2.43-24.8-2.44-16.27.13-30.12,3.2-41.55,9.2-11.44,6-20.17,14.16-26.2,24.47-6.03,10.31-9.07,21.99-9.12,35.03-.11,10.4,2.23,20.73,7,31.01,4.77,10.28,12.63,18.87,23.56,25.77,10.93,6.9,25.59,10.49,43.97,10.76,9.2,0,18.01-.95,26.4-2.92,6.25-1.46,11.47-3.75,14.77-5.85,0,0-5.89-4.91-12.21-12.25-5.57-6.47-9.38-15.18-9.54-15.54-3.09.68-6.14,1.15-9.3,1.16Z"/>
  <g>
    <path class="st2" d="M529.36,165.45h-3.76v3.76h3.76v-3.76Z"/>
    <g>
      <g>
        <path class="st3" d="M439.4,181.41v10.03h-7.16v-10.03h-10.03v-7.17h10.03l7.16,7.17Z"/>
        <path class="st3" d="M449.43,171.37v10.03h-7.17v-10.03h-10.03v-7.17h10.03l7.17,7.17Z"/>
        <g>
          <path class="st2" d="M465.03,165.82h4.52l8.44,23.59h-3.93l-2-5.9h-9.54l-2,5.9h-3.91l8.42-23.59h0ZM471.09,180.63l-2.93-8.71c-.29-.86-.56-1.77-.81-2.73h-.11c-.25.96-.52,1.87-.82,2.73l-2.93,8.71h7.6Z"/>
          <path class="st2" d="M481.86,188.74c-1.07-.7-1.9-1.72-2.51-3.07-.61-1.35-.91-2.95-.91-4.82s.29-3.41.87-4.76c.59-1.35,1.41-2.4,2.47-3.13,1.07-.74,2.3-1.1,3.71-1.1.81,0,1.56.12,2.25.36.69.24,1.31.58,1.86,1.02.55.44.99.97,1.34,1.58h.07v-8.95h3.52v23.54h-3.52v-2.57h-.07c-.38.64-.85,1.19-1.42,1.62-.57.44-1.2.77-1.89.99s-1.42.34-2.17.34c-1.34,0-2.55-.35-3.61-1.05h0ZM488.96,186c.68-.47,1.2-1.15,1.57-2.05.37-.89.56-1.93.56-3.11s-.18-2.18-.55-3.07c-.37-.89-.89-1.58-1.57-2.08-.68-.5-1.49-.74-2.4-.74s-1.7.24-2.39.71c-.69.47-1.22,1.15-1.6,2.03-.37.89-.57,1.92-.57,3.13s.19,2.28.57,3.16c.38.89.92,1.57,1.62,2.03.69.46,1.49.69,2.38.69s1.7-.24,2.38-.71h0Z"/>
          <path class="st2" d="M500.53,188.65c-1.2-.76-2.12-1.8-2.73-3.16-.61-1.35-.92-2.91-.92-4.68s.32-3.41.95-4.76c.64-1.35,1.55-2.38,2.75-3.11,1.2-.73,2.63-1.1,4.29-1.1s2.95.36,4.08,1.09c1.13.72,1.97,1.73,2.55,3,.57,1.27.86,2.71.86,4.32,0,.23,0,.49,0,.79,0,.29-.02.57-.06.84h-12.04c.09,1.07.32,1.97.69,2.69.37.72.89,1.27,1.57,1.63.67.36,1.5.54,2.48.54.7,0,1.3-.1,1.81-.31.51-.21.93-.5,1.26-.89.33-.39.59-.88.76-1.45h3.39c-.21,1.19-.64,2.21-1.29,3.06-.66.85-1.5,1.5-2.52,1.95-1.02.46-2.18.68-3.48.68-1.72,0-3.19-.37-4.4-1.13h0ZM508.38,176.7c-.32-.68-.78-1.21-1.39-1.58-.61-.37-1.33-.56-2.17-.56s-1.59.16-2.22.47-1.14.81-1.54,1.49c-.4.67-.66,1.55-.78,2.61h8.65c-.06-.95-.24-1.77-.56-2.45h0Z"/>
          <path class="st2" d="M514.85,172.23h3.51v3.22h.08c.45-1.1,1.08-1.93,1.9-2.49.82-.56,1.82-.84,2.98-.84.44,0,.74.02.9.05v3.34c-.13-.03-.27-.04-.42-.06-.15-.01-.31-.03-.47-.03-.99,0-1.87.21-2.61.63-.75.42-1.33,1.02-1.73,1.79-.41.77-.61,1.68-.61,2.71v8.84h-3.51v-17.18h0Z"/>
          <path class="st2" d="M525.72,172.23h3.51v17.18h-3.51v-17.18Z"/>
          <path class="st2" d="M534.05,189.13c-.83-.39-1.47-.97-1.93-1.74-.46-.77-.69-1.69-.69-2.77s.26-2.04.77-2.79c.51-.75,1.28-1.33,2.3-1.74,1.02-.41,2.32-.7,3.89-.85l4.13-.37v-1.16c0-.58-.14-1.09-.44-1.53-.29-.44-.71-.78-1.25-1.02-.55-.24-1.2-.35-1.95-.35s-1.33.12-1.86.36c-.53.24-.95.58-1.26,1.02-.31.44-.49.95-.55,1.53h-3.39c.1-1.2.44-2.24,1.04-3.13.59-.89,1.41-1.56,2.44-2.03,1.03-.47,2.23-.71,3.59-.71,1.47,0,2.72.24,3.78.71,1.05.47,1.86,1.15,2.41,2.03.56.89.84,1.92.84,3.09v11.71h-3.41v-2.66h-.08c-.42.87-1.11,1.59-2.05,2.14-.94.56-2.09.84-3.43.84-1.1,0-2.07-.19-2.9-.59h0ZM540.38,186.29c.71-.43,1.24-1.02,1.6-1.75.36-.74.54-1.56.54-2.46v-.72l-3.98.37c-1.25.12-2.18.4-2.82.84-.63.44-.95,1.06-.95,1.86,0,.51.13.95.39,1.34.26.38.62.67,1.1.87.47.2,1.04.3,1.68.3.93,0,1.75-.22,2.45-.65h0Z"/>
          <path class="st2" d="M548.94,172.23h3.51v2.5h.1c.49-.9,1.19-1.62,2.09-2.13.9-.51,1.97-.77,3.2-.77s2.36.26,3.28.79c.92.52,1.62,1.3,2.12,2.32.5,1.02.74,2.28.74,3.76v10.7h-3.51v-10.26c0-1.35-.32-2.4-.97-3.13-.65-.73-1.57-1.1-2.75-1.1-.89,0-1.65.2-2.3.6s-1.15.94-1.49,1.63c-.34.69-.52,1.47-.52,2.33v9.92h-3.51v-17.18h0Z"/>
          <path class="st2" d="M579.47,188.25c-1.63-1.02-2.88-2.45-3.76-4.29-.87-1.83-1.31-3.96-1.31-6.35s.43-4.46,1.29-6.3c.86-1.84,2.11-3.28,3.74-4.32,1.63-1.04,3.56-1.55,5.77-1.55,1.75,0,3.3.32,4.64.97,1.34.64,2.45,1.57,3.3,2.78.85,1.21,1.44,2.66,1.76,4.34h-3.59c-.24-1.04-.63-1.92-1.16-2.66-.54-.74-1.21-1.3-2.03-1.69-.82-.39-1.77-.59-2.85-.59-1.51,0-2.8.39-3.88,1.18-1.08.79-1.88,1.87-2.43,3.24-.54,1.37-.81,2.94-.81,4.69s.27,3.31.83,4.66c.56,1.35,1.35,2.4,2.41,3.16,1.06.76,2.34,1.13,3.83,1.13,1.29,0,2.39-.25,3.3-.74.91-.49,1.63-1.24,2.15-2.22.52-.98.84-2.2.96-3.65h-6.34v-2.8h9.8v1.47c0,2.3-.38,4.28-1.15,5.93-.77,1.65-1.88,2.92-3.36,3.81-1.48.89-3.28,1.34-5.4,1.34s-4.09-.51-5.72-1.53v-.02Z"/>
          <path class="st2" d="M597.72,172.23h3.51v3.22h.08c.45-1.1,1.08-1.93,1.9-2.49.82-.56,1.82-.84,2.98-.84.44,0,.74.02.9.05v3.34c-.13-.03-.27-.04-.42-.06-.15-.01-.31-.03-.47-.03-.99,0-1.87.21-2.61.63-.75.42-1.33,1.02-1.73,1.79-.41.77-.61,1.68-.61,2.71v8.84h-3.51v-17.18h0Z"/>
          <path class="st2" d="M611.53,188.7c-1.23-.72-2.18-1.77-2.86-3.11-.67-1.35-1.02-2.93-1.02-4.74s.33-3.41,1-4.76c.67-1.35,1.62-2.4,2.85-3.13s2.67-1.1,4.31-1.1,3.05.37,4.27,1.1c1.22.73,2.17,1.77,2.83,3.13.66,1.35.99,2.95.99,4.77s-.34,3.41-1.02,4.75c-.67,1.35-1.63,2.38-2.86,3.11-1.23.72-2.64,1.09-4.24,1.09s-3.04-.36-4.27-1.09h0ZM618.22,186.17c.69-.46,1.22-1.14,1.59-2.03.37-.9.56-2,.56-3.29s-.18-2.4-.55-3.31c-.37-.9-.89-1.59-1.58-2.05-.69-.46-1.5-.69-2.44-.69s-1.77.23-2.46.69c-.69.46-1.22,1.15-1.58,2.05-.37.9-.55,2.01-.55,3.31s.19,2.38.56,3.28c.37.9.9,1.58,1.59,2.05s1.5.69,2.44.69,1.73-.23,2.43-.69h0Z"/>
          <path class="st2" d="M640.95,189.41h-3.51v-2.5h-.1c-.49.9-1.19,1.62-2.09,2.13-.9.51-1.97.77-3.2.77s-2.36-.26-3.28-.79c-.92-.52-1.62-1.3-2.12-2.32-.5-1.02-.74-2.28-.74-3.76v-10.7h3.51v10.26c0,1.35.32,2.4.97,3.13.65.73,1.57,1.1,2.75,1.1.89,0,1.65-.2,2.3-.6.65-.4,1.15-.94,1.49-1.63.34-.69.52-1.47.52-2.33v-9.92h3.51v17.18h0Z"/>
          <path class="st2" d="M650.87,189.45c-.69-.22-1.32-.56-1.88-1-.57-.44-1.04-.99-1.42-1.64h-.08v8.97h-3.51v-23.55h3.51v2.61h.08c.35-.62.79-1.15,1.34-1.6.54-.45,1.15-.79,1.84-1.03s1.44-.36,2.26-.36c1.41,0,2.65.37,3.71,1.1,1.07.74,1.89,1.78,2.47,3.13.59,1.35.87,2.94.87,4.76s-.3,3.47-.9,4.82c-.6,1.35-1.44,2.37-2.51,3.07-1.07.7-2.28,1.05-3.62,1.05-.75,0-1.47-.11-2.17-.34h0ZM654.3,186.01c.69-.46,1.22-1.14,1.62-2.03.39-.89.58-1.95.58-3.16s-.19-2.25-.57-3.13c-.38-.89-.92-1.57-1.6-2.03-.68-.47-1.48-.71-2.38-.71s-1.73.25-2.41.74c-.68.5-1.2,1.19-1.57,2.08-.36.89-.54,1.91-.54,3.07s.18,2.23.55,3.11c.37.89.89,1.57,1.57,2.05.68.47,1.48.71,2.38.71s1.68-.23,2.38-.69h0Z"/>
        </g>
      </g>
      <g>
        <path class="st2" d="M295.38,189.26c-.81-.39-1.45-.96-1.9-1.71s-.67-1.66-.67-2.72.25-2.01.76-2.74,1.26-1.3,2.26-1.71,2.27-.69,3.82-.84l4.05-.37v-1.14c0-.57-.14-1.07-.43-1.5s-.69-.77-1.23-1-1.17-.35-1.91-.35c-.7,0-1.3.12-1.82.35s-.93.57-1.24,1-.49.93-.54,1.51h-3.33c.1-1.18.44-2.2,1.02-3.07s1.38-1.53,2.39-1.99,2.19-.69,3.53-.69c1.44,0,2.67.23,3.7.7s1.82,1.13,2.37,2,.82,1.88.82,3.04v11.5h-3.34v-2.62h-.08c-.42.86-1.09,1.56-2.02,2.1s-2.05.82-3.37.82c-1.08,0-2.03-.19-2.84-.58ZM301.59,186.47c.69-.42,1.21-1,1.57-1.72s.53-1.53.53-2.42v-.71l-3.9.37c-1.22.12-2.14.39-2.76.83s-.93,1.04-.93,1.82c0,.5.13.94.38,1.31s.61.65,1.08.85,1.01.3,1.65.3c.91,0,1.71-.21,2.4-.64Z"/>
        <path class="st2" d="M324.62,189.57c-.67-.22-1.29-.55-1.85-.98s-1.02-.97-1.4-1.61h-.08v8.81h-3.44v-23.12h3.44v2.57h.08c.34-.61.78-1.14,1.31-1.57s1.13-.78,1.81-1.01,1.41-.35,2.22-.35c1.38,0,2.6.36,3.64,1.08s1.85,1.75,2.43,3.08.86,2.89.86,4.68-.29,3.41-.88,4.73-1.41,2.33-2.46,3.01-2.23,1.03-3.55,1.03c-.74,0-1.45-.11-2.12-.33ZM328,186.19c.67-.46,1.2-1.12,1.58-1.99s.57-1.91.57-3.11-.19-2.2-.56-3.08-.9-1.54-1.57-2-1.45-.69-2.34-.69-1.7.24-2.37.73-1.18,1.17-1.53,2.04-.53,1.88-.53,3.01.18,2.19.54,3.06.87,1.54,1.54,2.01,1.45.7,2.34.7,1.66-.23,2.33-.68Z"/>
        <path class="st2" d="M338.2,189.26c-.81-.39-1.45-.96-1.9-1.71s-.67-1.66-.67-2.72.25-2.01.76-2.74,1.26-1.3,2.26-1.71,2.27-.69,3.82-.84l4.05-.37v-1.14c0-.57-.14-1.07-.43-1.5s-.69-.77-1.23-1-1.17-.35-1.91-.35c-.7,0-1.3.12-1.82.35s-.93.57-1.24,1-.49.93-.54,1.51h-3.33c.1-1.18.44-2.2,1.02-3.07s1.38-1.53,2.39-1.99,2.19-.69,3.53-.69c1.44,0,2.67.23,3.7.7s1.82,1.13,2.37,2,.82,1.88.82,3.04v11.5h-3.34v-2.62h-.08c-.42.86-1.09,1.56-2.02,2.1s-2.05.82-3.37.82c-1.08,0-2.03-.19-2.84-.58ZM344.41,186.47c.69-.42,1.21-1,1.57-1.72s.53-1.53.53-2.42v-.71l-3.9.37c-1.22.12-2.14.39-2.76.83s-.93,1.04-.93,1.82c0,.5.13.94.38,1.31s.61.65,1.08.85,1.01.3,1.65.3c.91,0,1.71-.21,2.4-.64Z"/>
        <path class="st2" d="M353.07,172.66h3.44v3.17h.08c.44-1.08,1.06-1.9,1.86-2.44s1.78-.82,2.92-.82c.43,0,.72.02.88.05v3.28c-.13-.02-.27-.04-.42-.06s-.31-.02-.47-.02c-.97,0-1.83.21-2.56.62s-1.3,1-1.7,1.76-.6,1.65-.6,2.67v8.68h-3.44v-16.87Z"/>
        <path class="st2" d="M368.06,189.14c-.71-.41-1.21-.97-1.52-1.69s-.46-1.56-.46-2.55v-9.32h-2.7v-2.92h2.7v-4.45h3.45v4.45h3.58v2.92h-3.58v9.14c0,.65.19,1.15.55,1.5s.94.52,1.73.52c.39,0,.81-.04,1.27-.11v2.78c-.78.22-1.52.34-2.2.34-1.18,0-2.12-.21-2.83-.62Z"/>
        <path class="st2" d="M386.14,188.83c-1.21-.71-2.14-1.73-2.8-3.06s-1-2.88-1-4.66.33-3.35.98-4.68,1.59-2.35,2.8-3.08,2.62-1.08,4.23-1.08,2.99.36,4.19,1.08,2.12,1.74,2.77,3.07.97,2.89.97,4.69-.33,3.34-1,4.67-1.6,2.34-2.8,3.05-2.59,1.07-4.15,1.07-2.98-.36-4.19-1.07ZM392.71,186.35c.67-.45,1.19-1.12,1.56-2s.55-1.96.55-3.24-.18-2.36-.54-3.25-.88-1.56-1.55-2.02-1.47-.68-2.39-.68-1.74.23-2.41.68-1.19,1.13-1.55,2.02-.54,1.97-.54,3.25.18,2.34.55,3.22.88,1.55,1.56,2.01,1.47.68,2.39.68,1.7-.22,2.38-.67Z"/>
        <path class="st2" d="M408.41,165.53c.32.03.62.08.92.15h.03v2.76c-.35-.09-.74-.13-1.16-.13-.82,0-1.43.21-1.81.63s-.57,1.02-.57,1.8v1.91h3.55v2.92h-3.55v13.95h-3.45v-13.95h-2.92v-2.92h2.92v-1.93c0-1.03.18-1.93.55-2.72s.93-1.4,1.69-1.85,1.72-.67,2.88-.67c.3,0,.61.01.92.04Z"/>
      </g>
    </g>
  </g>
</svg>